<svg width="6" height="6" viewBox="0 0 6 6" fill="none" xmlns="http://www.w3.org/2000/svg">
<path d="M3.05128 0.0535889C2.98107 0.0535889 2.93427 0.100392 2.93427 0.170596V0.872641C2.93427 0.942845 2.98107 0.989648 3.05128 0.989648C3.12148 0.989648 3.16829 0.942845 3.16829 0.872641V0.287604C4.46707 0.346107 5.50843 1.42258 5.50843 2.74476C5.50843 4.10205 4.40856 5.20192 3.05128 5.20192C1.69399 5.20192 0.594122 4.10205 0.594122 2.74476C0.594122 2.67456 0.547319 2.62775 0.477115 2.62775C0.40691 2.62775 0.360107 2.67456 0.360107 2.74476C0.360107 4.23075 1.56528 5.43593 3.05128 5.43593C4.53727 5.43593 5.74245 4.23075 5.74245 2.74476C5.74245 1.25877 4.53727 0.0535889 3.05128 0.0535889Z" fill="#D5D7DD"/>
<path d="M2.57865 3.08006C2.6835 3.18435 2.83496 3.25387 2.98642 3.25387C3.13787 3.25387 3.28933 3.19593 3.39418 3.08006C3.61554 2.8599 3.61554 2.48911 3.39418 2.25737C3.20778 2.07197 1.72816 1.19135 1.5534 1.08706C1.5068 1.06389 1.44855 1.06389 1.4136 1.11024C1.37865 1.145 1.367 1.20293 1.3903 1.24928C1.5068 1.42309 2.39224 2.89467 2.57865 3.08006Z" fill="#68D585"/>
</svg>
