<svg width="5" height="7" viewBox="0 0 5 7" fill="none" xmlns="http://www.w3.org/2000/svg">
<path fill-rule="evenodd" clip-rule="evenodd" d="M3.82965 0.908203H1.22939C0.903174 0.9086 0.638818 1.17738 0.638428 1.50905V5.83516C0.638818 6.16684 0.903174 6.43562 1.22939 6.43601H3.82965C4.15587 6.43562 4.42022 6.16684 4.42061 5.83516V1.50905C4.42022 1.17738 4.15587 0.9086 3.82965 0.908203ZM4.18432 5.47465C4.18432 5.54102 4.1314 5.59482 4.06612 5.59482H0.993097C0.927821 5.59482 0.874904 5.54102 0.874904 5.47465V1.62922C0.874904 1.56285 0.927821 1.50905 0.993097 1.50905H4.06612C4.1314 1.50905 4.18432 1.56285 4.18432 1.62922V5.47465Z" fill="#68D585"/>
</svg>
